<?xml version="1.0" encoding="UTF-8" standalone="no"?>
<!-- Created with Inkscape (http://www.inkscape.org/) -->

<svg
   xmlns:dc="http://purl.org/dc/elements/1.1/"
   xmlns:cc="http://creativecommons.org/ns#"
   xmlns:rdf="http://www.w3.org/1999/02/22-rdf-syntax-ns#"
   xmlns:svg="http://www.w3.org/2000/svg"
   xmlns="http://www.w3.org/2000/svg"
   xmlns:sodipodi="http://sodipodi.sourceforge.net/DTD/sodipodi-0.dtd"
   xmlns:inkscape="http://www.inkscape.org/namespaces/inkscape"
   version="1.1"
   id="svg4794"
   xml:space="preserve"
   width="335.2933"
   height="271.98007"
   viewBox="0 0 335.29331 271.98007"
   sodipodi:docname="b20_s6_5_marcin_v1formated.svg"
   inkscape:version="0.92.2 (5c3e80d, 2017-08-06)"><metadata
     id="metadata4800"><rdf:RDF><cc:Work
         rdf:about=""><dc:format>image/svg+xml</dc:format><dc:type
           rdf:resource="http://purl.org/dc/dcmitype/StillImage" /><dc:title></dc:title></cc:Work></rdf:RDF></metadata><defs
     id="defs4798"><clipPath
       clipPathUnits="userSpaceOnUse"
       id="clipPath4848"><path
         d="M 79.71,36.31 H 328.19 V 358.56 H 79.71 Z"
         id="path4846"
         inkscape:connector-curvature="0" /></clipPath><clipPath
       clipPathUnits="userSpaceOnUse"
       id="clipPath5347"><rect
         style="fill:#ffffff;fill-opacity:1;stroke:#000000;stroke-width:0.74445719;stroke-opacity:1"
         id="rect5349"
         width="263.56964"
         height="194.17584"
         x="179.40364"
         y="-236.20128"
         transform="scale(1,-1)" /></clipPath><clipPath
       clipPathUnits="userSpaceOnUse"
       id="clipPath5355"><rect
         style="fill:#ffffff;fill-opacity:1;stroke:#000000;stroke-width:0.74445719;stroke-opacity:1"
         id="rect5357"
         width="263.56964"
         height="194.17584"
         x="179.86768"
         y="-236.62804"
         transform="scale(1,-1)" /></clipPath><clipPath
       clipPathUnits="userSpaceOnUse"
       id="clipPath5363"><rect
         style="fill:#ffffff;fill-opacity:1;stroke:#000000;stroke-width:0.75;stroke-opacity:1"
         id="rect5365"
         width="254.6451"
         height="203.98506"
         x="162.55394"
         y="-240.73347"
         transform="scale(1,-1)" /></clipPath><clipPath
       clipPathUnits="userSpaceOnUse"
       id="clipPath5371"><rect
         style="fill:#ffffff;fill-opacity:1;stroke:#000000;stroke-width:0.75;stroke-opacity:1"
         id="rect5373"
         width="254.6451"
         height="203.98506"
         x="162.55394"
         y="-240.73347"
         transform="scale(1,-1)" /></clipPath><clipPath
       clipPathUnits="userSpaceOnUse"
       id="clipPath5379"><rect
         style="fill:#ffffff;fill-opacity:1;stroke:#000000;stroke-width:1.05255127;stroke-opacity:1"
         id="rect5381"
         width="356.14508"
         height="287.25705"
         x="179.27849"
         y="-321.07278"
         transform="scale(1,-1)" /></clipPath><clipPath
       clipPathUnits="userSpaceOnUse"
       id="clipPath5387"><rect
         style="fill:#ffffff;fill-opacity:1;stroke:#000000;stroke-width:1.11752355;stroke-opacity:1"
         id="rect5389"
         width="267.77823"
         height="430.67456"
         x="-16.320843"
         y="-315.64008"
         transform="scale(1,-1)" /></clipPath><clipPath
       clipPathUnits="userSpaceOnUse"
       id="clipPath5395"><rect
         style="fill:#ffffff;fill-opacity:1;stroke:#000000;stroke-width:0.75;stroke-opacity:1"
         id="rect5397"
         width="254.6451"
         height="203.98506"
         x="-4.4831924"
         y="-295.89044"
         transform="scale(1,-1)" /></clipPath><clipPath
       clipPathUnits="userSpaceOnUse"
       id="clipPath5399"><rect
         style="fill:#ffffff;fill-opacity:1;stroke:#000000;stroke-width:0.75;stroke-opacity:1"
         id="rect5401"
         width="254.6451"
         height="203.98506"
         x="-7.1731052"
         y="-216.08968"
         transform="scale(1,-1)" /></clipPath><clipPath
       clipPathUnits="userSpaceOnUse"
       id="clipPath5403"><rect
         style="fill:#ffffff;fill-opacity:1;stroke:#000000;stroke-width:0.75;stroke-opacity:1"
         id="rect5405"
         width="254.6451"
         height="203.98506"
         x="-7.1731052"
         y="-216.08968"
         transform="scale(1,-1)" /></clipPath><clipPath
       clipPathUnits="userSpaceOnUse"
       id="clipPath5407"><rect
         style="fill:#ffffff;fill-opacity:1;stroke:#000000;stroke-width:0.75;stroke-opacity:1"
         id="rect5409"
         width="254.6451"
         height="203.98506"
         x="-7.1731052"
         y="-216.08968"
         transform="scale(1,-1)" /></clipPath><clipPath
       clipPathUnits="userSpaceOnUse"
       id="clipPath5411"><rect
         style="fill:#ffffff;fill-opacity:1;stroke:#000000;stroke-width:0.75;stroke-opacity:1"
         id="rect5413"
         width="254.6451"
         height="203.98506"
         x="-7.1731052"
         y="-216.08968"
         transform="scale(1,-1)" /></clipPath><clipPath
       clipPathUnits="userSpaceOnUse"
       id="clipPath5415"><rect
         style="fill:#ffffff;fill-opacity:1;stroke:#000000;stroke-width:0.75;stroke-opacity:1"
         id="rect5417"
         width="254.6451"
         height="203.98506"
         x="-7.1731052"
         y="-216.08968"
         transform="scale(1,-1)" /></clipPath><clipPath
       clipPathUnits="userSpaceOnUse"
       id="clipPath5419"><rect
         style="fill:#ffffff;fill-opacity:1;stroke:#000000;stroke-width:0.75;stroke-opacity:1"
         id="rect5421"
         width="254.6451"
         height="203.98506"
         x="-7.1731052"
         y="-216.08968"
         transform="scale(1,-1)" /></clipPath></defs><sodipodi:namedview
     pagecolor="#ffffff"
     bordercolor="#666666"
     borderopacity="1"
     objecttolerance="10"
     gridtolerance="10"
     guidetolerance="10"
     inkscape:pageopacity="0"
     inkscape:pageshadow="2"
     inkscape:window-width="1920"
     inkscape:window-height="1001"
     id="namedview4796"
     showgrid="false"
     inkscape:zoom="1.6729167"
     inkscape:cx="249.09653"
     inkscape:cy="84.297754"
     inkscape:window-x="-9"
     inkscape:window-y="-9"
     inkscape:window-maximized="1"
     inkscape:current-layer="g4802" /><g
     id="g4802"
     inkscape:groupmode="layer"
     inkscape:label="b20_s6_5_marcin_v1"
     transform="matrix(1.3333333,0,0,-1.3333333,3.5373838,288.11956)"><g
       id="g4804" /><g
       id="g4806" /><g
       id="g4808" /><g
       id="g4810" /><g
       id="g4812" /><g
       id="g4814" /><g
       id="g4816" /><g
       id="g4818" /><g
       id="g4820" /><g
       id="g4822" /><g
       id="g4824" /><g
       id="g4826" /><g
       id="g4828" /><g
       id="g4830" /><g
       id="g4832" /><g
       id="g4834" /><g
       id="g4836"
       clip-path="url(#clipPath5419)"
       transform="matrix(0.98663263,0,0,1,6.6713396,-1.3449564)"><path
         d="M 0,0 H 432 V 360 H 0 Z"
         style="fill:#ffffff;fill-opacity:1;fill-rule:nonzero;stroke:none"
         id="path4838"
         inkscape:connector-curvature="0" /></g><g
       id="g4840" /><g
       id="g4842"
       clip-path="url(#clipPath5415)"
       transform="matrix(0.98663263,0,0,1,5.3443617,-1.3449564)"><g
         id="g4844"
         clip-path="url(#clipPath4848)"><path
           d="M 79.71,36.31 H 328.19 V 358.56 H 79.71 Z"
           style="fill:none;stroke:#ffffff;stroke-width:1.07000005;stroke-linecap:round;stroke-linejoin:round;stroke-miterlimit:10;stroke-dasharray:none;stroke-opacity:1"
           id="path4850"
           inkscape:connector-curvature="0" /><path
           d="M 79.71,72.66 H 328.19"
           style="fill:none;stroke:#bebebe;stroke-width:0.20999999;stroke-linecap:butt;stroke-linejoin:round;stroke-miterlimit:10;stroke-dasharray:0.85, 0.85;stroke-dashoffset:0;stroke-opacity:1"
           id="path4852"
           inkscape:connector-curvature="0" /><path
           d="M 79.71,117.87 H 328.19"
           style="fill:none;stroke:#bebebe;stroke-width:0.20999999;stroke-linecap:butt;stroke-linejoin:round;stroke-miterlimit:10;stroke-dasharray:0.85, 0.85;stroke-dashoffset:0;stroke-opacity:1"
           id="path4854"
           inkscape:connector-curvature="0" /><path
           d="M 79.71,163.08 H 328.19"
           style="fill:none;stroke:#bebebe;stroke-width:0.20999999;stroke-linecap:butt;stroke-linejoin:round;stroke-miterlimit:10;stroke-dasharray:0.85, 0.85;stroke-dashoffset:0;stroke-opacity:1"
           id="path4856"
           inkscape:connector-curvature="0" /><path
           d="M 79.71,208.29 H 328.19"
           style="fill:none;stroke:#bebebe;stroke-width:0.20999999;stroke-linecap:butt;stroke-linejoin:round;stroke-miterlimit:10;stroke-dasharray:0.85, 0.85;stroke-dashoffset:0;stroke-opacity:1"
           id="path4858"
           inkscape:connector-curvature="0" /><path
           d="M 79.71,253.5 H 328.19"
           style="fill:none;stroke:#bebebe;stroke-width:0.20999999;stroke-linecap:butt;stroke-linejoin:round;stroke-miterlimit:10;stroke-dasharray:0.85, 0.85;stroke-dashoffset:0;stroke-opacity:1"
           id="path4860"
           inkscape:connector-curvature="0" /><path
           d="M 79.71,298.7 H 328.19"
           style="fill:none;stroke:#bebebe;stroke-width:0.20999999;stroke-linecap:butt;stroke-linejoin:round;stroke-miterlimit:10;stroke-dasharray:0.85, 0.85;stroke-dashoffset:0;stroke-opacity:1"
           id="path4862"
           inkscape:connector-curvature="0" /><path
           d="M 79.71,343.91 H 328.19"
           style="fill:none;stroke:#bebebe;stroke-width:0.20999999;stroke-linecap:butt;stroke-linejoin:round;stroke-miterlimit:10;stroke-dasharray:0.85, 0.85;stroke-dashoffset:0;stroke-opacity:1"
           id="path4864"
           inkscape:connector-curvature="0" /><path
           d="M 124.67,36.31 V 358.56"
           style="fill:none;stroke:#bebebe;stroke-width:0.20999999;stroke-linecap:butt;stroke-linejoin:round;stroke-miterlimit:10;stroke-dasharray:0.85, 0.85;stroke-dashoffset:0;stroke-opacity:1"
           id="path4866"
           inkscape:connector-curvature="0" /><path
           d="M 192.01,36.31 V 358.56"
           style="fill:none;stroke:#bebebe;stroke-width:0.20999999;stroke-linecap:butt;stroke-linejoin:round;stroke-miterlimit:10;stroke-dasharray:0.85, 0.85;stroke-dashoffset:0;stroke-opacity:1"
           id="path4868"
           inkscape:connector-curvature="0" /><path
           d="M 256.08,36.31 V 358.56"
           style="fill:none;stroke:#bebebe;stroke-width:0.20999999;stroke-linecap:butt;stroke-linejoin:round;stroke-miterlimit:10;stroke-dasharray:0.85, 0.85;stroke-dashoffset:0;stroke-opacity:1"
           id="path4870"
           inkscape:connector-curvature="0" /><path
           d="M 320.16,36.31 V 358.56"
           style="fill:none;stroke:#bebebe;stroke-width:0.20999999;stroke-linecap:butt;stroke-linejoin:round;stroke-miterlimit:10;stroke-dasharray:0.85, 0.85;stroke-dashoffset:0;stroke-opacity:1"
           id="path4872"
           inkscape:connector-curvature="0" /><path
           d="M 79.71,50.06 H 328.19"
           style="fill:none;stroke:#bebebe;stroke-width:0.43000001;stroke-linecap:butt;stroke-linejoin:round;stroke-miterlimit:10;stroke-dasharray:1.71, 1.71;stroke-dashoffset:0;stroke-opacity:1"
           id="path4874"
           inkscape:connector-curvature="0" /><path
           d="M 79.71,95.27 H 328.19"
           style="fill:none;stroke:#bebebe;stroke-width:0.43000001;stroke-linecap:butt;stroke-linejoin:round;stroke-miterlimit:10;stroke-dasharray:1.71, 1.71;stroke-dashoffset:0;stroke-opacity:1"
           id="path4876"
           inkscape:connector-curvature="0" /><path
           d="M 79.71,140.47 H 328.19"
           style="fill:none;stroke:#bebebe;stroke-width:0.43000001;stroke-linecap:butt;stroke-linejoin:round;stroke-miterlimit:10;stroke-dasharray:1.71, 1.71;stroke-dashoffset:0;stroke-opacity:1"
           id="path4878"
           inkscape:connector-curvature="0" /><path
           d="M 79.71,185.68 H 328.19"
           style="fill:none;stroke:#bebebe;stroke-width:0.43000001;stroke-linecap:butt;stroke-linejoin:round;stroke-miterlimit:10;stroke-dasharray:1.71, 1.71;stroke-dashoffset:0;stroke-opacity:1"
           id="path4880"
           inkscape:connector-curvature="0" /><path
           d="M 79.71,230.89 H 328.19"
           style="fill:none;stroke:#bebebe;stroke-width:0.43000001;stroke-linecap:butt;stroke-linejoin:round;stroke-miterlimit:10;stroke-dasharray:1.71, 1.71;stroke-dashoffset:0;stroke-opacity:1"
           id="path4882"
           inkscape:connector-curvature="0" /><path
           d="M 79.71,276.1 H 328.19"
           style="fill:none;stroke:#bebebe;stroke-width:0.43000001;stroke-linecap:butt;stroke-linejoin:round;stroke-miterlimit:10;stroke-dasharray:1.71, 1.71;stroke-dashoffset:0;stroke-opacity:1"
           id="path4884"
           inkscape:connector-curvature="0" /><path
           d="M 79.71,321.31 H 328.19"
           style="fill:none;stroke:#bebebe;stroke-width:0.43000001;stroke-linecap:butt;stroke-linejoin:round;stroke-miterlimit:10;stroke-dasharray:1.71, 1.71;stroke-dashoffset:0;stroke-opacity:1"
           id="path4886"
           inkscape:connector-curvature="0" /><path
           d="M 91.01,36.31 V 358.56"
           style="fill:none;stroke:#bebebe;stroke-width:0.43000001;stroke-linecap:butt;stroke-linejoin:round;stroke-miterlimit:10;stroke-dasharray:1.71, 1.71;stroke-dashoffset:0;stroke-opacity:1"
           id="path4888"
           inkscape:connector-curvature="0" /><path
           d="M 158.34,36.31 V 358.56"
           style="fill:none;stroke:#bebebe;stroke-width:0.43000001;stroke-linecap:butt;stroke-linejoin:round;stroke-miterlimit:10;stroke-dasharray:1.71, 1.71;stroke-dashoffset:0;stroke-opacity:1"
           id="path4890"
           inkscape:connector-curvature="0" /><path
           d="M 225.67,36.31 V 358.56"
           style="fill:none;stroke:#bebebe;stroke-width:0.43000001;stroke-linecap:butt;stroke-linejoin:round;stroke-miterlimit:10;stroke-dasharray:1.71, 1.71;stroke-dashoffset:0;stroke-opacity:1"
           id="path4892"
           inkscape:connector-curvature="0" /><path
           d="M 286.49,36.31 V 358.56"
           style="fill:none;stroke:#bebebe;stroke-width:0.43000001;stroke-linecap:butt;stroke-linejoin:round;stroke-miterlimit:10;stroke-dasharray:1.71, 1.71;stroke-dashoffset:0;stroke-opacity:1"
           id="path4894"
           inkscape:connector-curvature="0" /><path
           d="m 101.87,89.84 2.17,-0.3 2.17,-0.94 2.17,-1.33 2.18,-0.9 2.17,-0.91 2.17,-1.3 2.17,-1.99 2.17,-1.08 2.18,-0.94 2.17,-1.36 2.17,-0.93 2.17,-0.83 2.17,-0.84 2.18,-1.44 2.17,-0.78 2.17,-0.82 2.17,-1.25 2.17,-0.81 2.18,-0.81 2.17,-0.79 2.17,-1.01 2.17,-0.72 2.17,-0.62 2.18,-0.95 2.17,-0.68 2.17,-0.6 2.17,-0.56 2.18,-0.87 2.17,-0.58 2.17,-0.49 2.17,-0.68 2.17,-0.44 2.18,-0.52 2.17,-0.42 2.17,-0.57 2.17,-0.43 2.17,-0.29 2.18,-0.36 2.17,-0.27 2.17,-0.25 2.17,-0.01 2.17,-0.17 2.18,-0.09 2.17,0.15 2.17,-0.03 2.17,0.01 2.17,0.13 2.18,0.68 2.17,0.43 2.17,0.55 2.17,1.54 2.17,0.91 2.18,1.15 2.17,1.34 2.17,3.37 2.17,2.24 2.17,2.38 2.18,5.64 V 58.09 l -2.18,-1.72 -2.17,-0.5 -2.17,-0.42 -2.17,-0.89 -2.17,-0.15 -2.18,-0.17 -2.17,-0.18 -2.17,-0.36 -2.17,0.06 h -2.17 l -2.18,-0.11 -2.17,0.15 -2.17,0.11 -2.17,0.12 -2.17,0.11 -2.18,0.24 -2.17,0.21 -2.17,0.13 -2.17,0.31 -2.17,0.34 -2.18,0.25 -2.17,0.29 -2.17,0.4 -2.17,0.41 -2.17,0.3 -2.18,0.48 -2.17,0.47 -2.17,0.35 -2.17,0.58 -2.17,0.47 -2.18,0.47 -2.17,0.44 -2.17,0.73 -2.17,0.54 -2.18,0.51 -2.17,1.04 -2.17,0.56 -2.17,0.62 -2.17,0.64 -2.18,1.18 -2.17,0.64 -2.17,0.75 -2.17,1.37 -2.17,0.74 -2.18,0.69 -2.17,0.9 -2.17,1.61 -2.17,0.82 -2.17,0.83 -2.18,1.82 -2.17,0.75 -2.17,0.83 -2.17,0.94 -2.17,1.78 -2.18,1.04 -2.17,0.73 -2.17,0.74 -2.17,0.73 z"
           style="fill:#c72e29;fill-opacity:0.4;fill-rule:nonzero;stroke:none"
           id="path4896"
           inkscape:connector-curvature="0" /><path
           d="m 101.87,89.84 2.17,-0.3 2.17,-0.94 2.17,-1.33 2.18,-0.9 2.17,-0.91 2.17,-1.3 2.17,-1.99 2.17,-1.08 2.18,-0.94 2.17,-1.36 2.17,-0.93 2.17,-0.83 2.17,-0.84 2.18,-1.44 2.17,-0.78 2.17,-0.82 2.17,-1.25 2.17,-0.81 2.18,-0.81 2.17,-0.79 2.17,-1.01 2.17,-0.72 2.17,-0.62 2.18,-0.95 2.17,-0.67 2.17,-0.59 2.17,-0.55 2.18,-0.86 2.17,-0.56 2.17,-0.45 2.17,-0.58 2.17,-0.36 2.18,-0.48 2.17,-0.17 2.17,-0.4 2.17,-0.27 2.17,0.23 2.18,0.04 2.17,0.08 2.17,0.33 2.17,1.29 2.17,0.81 2.18,1.23 2.17,3.25 2.17,2.4 2.17,2.97 2.17,3.83 2.18,9.62 2.17,7.27 2.17,8.91 2.17,19.46 2.17,16.53 2.18,18.94 2.17,22.15 2.17,41.62 2.17,33.1 2.17,34.88 2.18,47.23 V 191.11 l -2.18,-37.04 -2.17,-16.6 -2.17,-15.2 -2.17,-23.5 -2.17,-7.63 -2.18,-6.56 -2.17,-6.01 -2.17,-8.82 -2.17,-2.72 -2.17,-2.28 -2.18,-4.15 -2.17,-1.04 -2.17,-0.87 -2.17,-0.65 -2.17,-1.39 -2.18,-0.17 -2.17,-0.18 -2.17,-0.5 -2.17,0.14 -2.17,0.16 -2.18,0.11 -2.17,0.06 -2.17,0.34 -2.17,0.35 -2.17,0.18 -2.18,0.48 -2.17,0.42 -2.17,0.33 -2.17,0.56 -2.17,0.45 -2.18,0.48 -2.17,0.43 -2.17,0.73 -2.17,0.53 -2.18,0.51 -2.17,1.04 -2.17,0.56 -2.17,0.62 -2.17,0.64 -2.18,1.18 -2.17,0.64 -2.17,0.75 -2.17,1.37 -2.17,0.74 -2.18,0.69 -2.17,0.9 -2.17,1.61 -2.17,0.82 -2.17,0.83 -2.18,1.82 -2.17,0.75 -2.17,0.83 -2.17,0.94 -2.17,1.78 -2.18,1.04 -2.17,0.73 -2.17,0.74 -2.17,0.73 z"
           style="fill:#016392;fill-opacity:0.4;fill-rule:nonzero;stroke:none"
           id="path4898"
           inkscape:connector-curvature="0" /><path
           d="m 101.87,87.41 2.17,-0.9 2.17,-1.02 2.17,-1.05 2.18,-1.16 2.17,-1.37 2.17,-1.11 2.17,-1.24 2.17,-1.16 2.18,-1.12 2.17,-1.04 2.17,-1.06 2.17,-1.17 2.17,-0.99 2.18,-1.05 2.17,-1.01 2.17,-0.93 2.17,-0.89 2.17,-0.87 2.18,-0.94 2.17,-0.79 2.17,-0.83 2.17,-0.77 2.17,-0.72 2.18,-0.67 2.17,-0.67 2.17,-0.7 2.17,-0.59 2.18,-0.61 2.17,-0.57 2.17,-0.51 2.17,-0.49 2.17,-0.47 2.18,-0.49 2.17,-0.39 2.17,-0.42 2.17,-0.4 2.17,-0.31 2.18,-0.32 2.17,-0.3 2.17,-0.31 2.17,-0.15 2.17,-0.23 2.18,-0.19 2.17,-0.02 2.17,-0.1 2.17,-0.08 2.17,-0.05 2.18,0.31 2.17,0.09 2.17,0.14 2.17,0.74 2.17,0.38 2.18,0.44 2.17,0.49 2.17,1.7 2.17,0.89 2.17,1.04 2.18,2.96"
           style="fill:none;stroke:#c72e29;stroke-width:2.13000011;stroke-linecap:butt;stroke-linejoin:round;stroke-miterlimit:10;stroke-dasharray:8.54, 8.54;stroke-dashoffset:0;stroke-opacity:0.69800002"
           id="path4900"
           inkscape:connector-curvature="0" /><path
           d="m 101.87,87.41 2.17,-0.9 2.17,-1.02 2.17,-1.05 2.18,-1.16 2.17,-1.37 2.17,-1.11 2.17,-1.24 2.17,-1.16 2.18,-1.12 2.17,-1.04 2.17,-1.06 2.17,-1.17 2.17,-0.99 2.18,-1.05 2.17,-1.01 2.17,-0.93 2.17,-0.89 2.17,-0.87 2.18,-0.94 2.17,-0.79 2.17,-0.83 2.17,-0.77 2.17,-0.72 2.18,-0.67 2.17,-0.66 2.17,-0.7 2.17,-0.57 2.18,-0.61 2.17,-0.54 2.17,-0.47 2.17,-0.47 2.17,-0.44 2.18,-0.45 2.17,-0.26 2.17,-0.34 2.17,-0.3 2.17,-0.02 2.18,-0.12 2.17,-0.08 2.17,-0.02 2.17,0.69 2.17,0.31 2.18,0.48 2.17,1.93 2.17,1.21 2.17,1.48 2.17,1.85 2.18,5.97 2.17,3.8 2.17,4.58 2.17,12.58 2.17,9.39 2.18,10.54 2.17,12.3 2.17,30.47 2.17,21.51 2.17,23.05 2.18,41.8"
           style="fill:none;stroke:#016392;stroke-width:2.13000011;stroke-linecap:butt;stroke-linejoin:round;stroke-miterlimit:10;stroke-dasharray:8.54, 8.54;stroke-dashoffset:0;stroke-opacity:0.69800002"
           id="path4902"
           inkscape:connector-curvature="0" /><path
           d="m 93.18,96.74 2.17,5.65 2.17,-11.24 2.18,-13.51 2.17,-5.79 2.17,-17.5 2.17,52.57 2.17,-12.94 2.18,-8.46 2.17,-3.37 2.17,-15.34 2.17,5.65 2.17,-14.17 2.18,17.53 2.17,9.36 2.17,-9.88 2.17,-5.35 2.17,-6.5 2.18,-1.85 2.17,-4.69 2.17,14.53 2.17,0.94 2.17,-8.92 2.18,-3.85 2.17,-4.8 2.17,-1.87 2.17,7.75 2.17,4.33 2.18,-0.89 2.17,-1.87 2.17,-2.02 2.17,-5.77 2.18,-0.77 2.17,-0.47 2.17,13.03 2.17,0.89 2.17,-7.85 2.18,-1.45 2.17,-1.66 2.17,-2.59 2.17,-1.95 2.17,8.72 2.18,-1.6 2.17,-1.12 2.17,0.29 2.17,-1.92 2.17,-1.23 2.18,-1.51 2.17,12.89 2.17,-0.88 2.17,-0.91 2.17,-1.2 2.18,-3.43 2.17,-3.37 2.17,-1.69 2.17,21.08 2.17,0.87 2.18,-4.02 2.17,0.22 2.17,-9.43 2.17,0.58"
           style="fill:none;stroke:#000000;stroke-width:2.13000011;stroke-linecap:butt;stroke-linejoin:round;stroke-miterlimit:10;stroke-dasharray:none;stroke-opacity:0.6"
           id="path4904"
           inkscape:connector-curvature="0" /><path
           d="m 93.18,88.24 2.17,-0.85 2.17,-3.67 2.18,2.14 2.17,-0.39 2.17,-2.41 2.17,-1.29 2.17,-1.55 2.18,0.09 2.17,0.57 2.17,-4.45 2.17,-1.25 2.17,-1.46 2.18,-1.75 2.17,-0.48 2.17,-1.55 2.17,-0.2 2.17,-0.62 2.18,-1.83 2.17,-1.69 2.17,-1.48 2.17,-1.23 2.17,-1.24 2.18,0.54 2.17,-0.92 2.17,-1.18 2.17,-0.17 2.17,0.09 2.18,-0.04 2.17,0.1 2.17,-1.06 2.17,0.18 2.18,0.43 2.17,-0.43 2.17,-0.34 2.17,0.25 2.17,-0.02 2.18,-0.22 2.17,-0.84 2.17,-1.2 2.17,-0.24 2.17,0.02 2.18,-0.03 2.17,0.17 2.17,0.24 2.17,0.82 2.17,0.94 2.18,0.96 2.17,0.74 2.17,0.54 2.17,0.22 2.17,0.21 2.18,1.37 2.17,1.62 2.17,1.18 2.17,1.38 2.17,0.52 2.18,1.09"
           style="fill:none;stroke:#000000;stroke-width:2.13000011;stroke-linecap:butt;stroke-linejoin:round;stroke-miterlimit:10;stroke-dasharray:none;stroke-opacity:0.6"
           id="path4906"
           inkscape:connector-curvature="0" /><path
           d="M 79.71,36.31 H 328.19 V 358.56 H 79.71 Z"
           style="fill:none;stroke:#ffffff;stroke-width:1.07000005;stroke-linecap:round;stroke-linejoin:round;stroke-miterlimit:10;stroke-dasharray:none;stroke-opacity:1"
           id="path4908"
           inkscape:connector-curvature="0" /></g></g><g
       id="g4910" /><g
       id="g4912" /><g
       id="g4914" /><g
       id="g4916" /><g
       id="g4918" /><g
       id="g4920" /><g
       id="g4922" /><g
       id="g4924" /><g
       id="g4926" /><g
       id="g4928" /><g
       id="g4930" /><g
       id="g4932" /><g
       id="g4934" /><g
       id="g4936" /><g
       id="g4938" /><g
       id="g4940"
       clip-path="url(#clipPath5411)"
       transform="matrix(0.98663263,0,0,1,5.3443617,-1.3449564)"><text
         transform="matrix(1,0,0,-1,67.55,45.39)"
         style="font-variant:normal;font-weight:normal;font-size:13px;font-family:Helvetica;-inkscape-font-specification:Helvetica;writing-mode:lr-tb;fill:#000000;fill-opacity:1;fill-rule:nonzero;stroke:none"
         id="text4944"><tspan
           x="0"
           y="0"
           id="tspan4942">0</tspan></text>
<text
         transform="matrix(1,0,0,-1,35.03,90.6)"
         style="font-variant:normal;font-weight:normal;font-size:13px;font-family:Helvetica;-inkscape-font-specification:Helvetica;writing-mode:lr-tb;fill:#000000;fill-opacity:1;fill-rule:nonzero;stroke:none"
         id="text4948"><tspan
           x="0 7.2280002 14.456 18.07 25.298 32.526001"
           y="0"
           sodipodi:role="line"
           id="tspan4946">10,000</tspan></text>
<text
         transform="matrix(1,0,0,-1,35.03,135.81)"
         style="font-variant:normal;font-weight:normal;font-size:13px;font-family:Helvetica;-inkscape-font-specification:Helvetica;writing-mode:lr-tb;fill:#000000;fill-opacity:1;fill-rule:nonzero;stroke:none"
         id="text4952"><tspan
           x="0 7.2280002 14.456 18.07 25.298 32.526001"
           y="0"
           sodipodi:role="line"
           id="tspan4950">20,000</tspan></text>
<text
         transform="matrix(1,0,0,-1,35.03,181.02)"
         style="font-variant:normal;font-weight:normal;font-size:13px;font-family:Helvetica;-inkscape-font-specification:Helvetica;writing-mode:lr-tb;fill:#000000;fill-opacity:1;fill-rule:nonzero;stroke:none"
         id="text4956"><tspan
           x="0 7.2280002 14.456 18.07 25.298 32.526001"
           y="0"
           sodipodi:role="line"
           id="tspan4954">30,000</tspan></text>
<text
         transform="matrix(1,0,0,-1,35.03,226.22)"
         style="font-variant:normal;font-weight:normal;font-size:13px;font-family:Helvetica;-inkscape-font-specification:Helvetica;writing-mode:lr-tb;fill:#000000;fill-opacity:1;fill-rule:nonzero;stroke:none"
         id="text4960"><tspan
           x="0 7.2280002 14.456 18.07 25.298 32.526001"
           y="0"
           sodipodi:role="line"
           id="tspan4958">40,000</tspan></text>
<text
         transform="matrix(1,0,0,-1,35.03,271.43)"
         style="font-variant:normal;font-weight:normal;font-size:13px;font-family:Helvetica;-inkscape-font-specification:Helvetica;writing-mode:lr-tb;fill:#000000;fill-opacity:1;fill-rule:nonzero;stroke:none"
         id="text4964"><tspan
           x="0 7.2280002 14.456 18.07 25.298 32.526001"
           y="0"
           sodipodi:role="line"
           id="tspan4962">50,000</tspan></text>
<text
         transform="matrix(1,0,0,-1,35.03,316.64)"
         style="font-variant:normal;font-weight:normal;font-size:13px;font-family:Helvetica;-inkscape-font-specification:Helvetica;writing-mode:lr-tb;fill:#000000;fill-opacity:1;fill-rule:nonzero;stroke:none"
         id="text4968"><tspan
           x="0 7.2280002 14.456 18.07 25.298 32.526001"
           y="0"
           sodipodi:role="line"
           id="tspan4966">60,000</tspan></text>
</g><g
       id="g4970" /><g
       id="g4972"
       clip-path="url(#clipPath5407)"
       transform="matrix(0.98663263,0,0,1,5.3443617,-1.3449564)"><path
         d="m 76.97,50.06 h 2.74"
         style="fill:none;stroke:#bebebe;stroke-width:0.43000001;stroke-linecap:butt;stroke-linejoin:round;stroke-miterlimit:10;stroke-dasharray:none;stroke-opacity:1"
         id="path4974"
         inkscape:connector-curvature="0" /><path
         d="m 76.97,95.27 h 2.74"
         style="fill:none;stroke:#bebebe;stroke-width:0.43000001;stroke-linecap:butt;stroke-linejoin:round;stroke-miterlimit:10;stroke-dasharray:none;stroke-opacity:1"
         id="path4976"
         inkscape:connector-curvature="0" /><path
         d="m 76.97,140.47 h 2.74"
         style="fill:none;stroke:#bebebe;stroke-width:0.43000001;stroke-linecap:butt;stroke-linejoin:round;stroke-miterlimit:10;stroke-dasharray:none;stroke-opacity:1"
         id="path4978"
         inkscape:connector-curvature="0" /><path
         d="m 76.97,185.68 h 2.74"
         style="fill:none;stroke:#bebebe;stroke-width:0.43000001;stroke-linecap:butt;stroke-linejoin:round;stroke-miterlimit:10;stroke-dasharray:none;stroke-opacity:1"
         id="path4980"
         inkscape:connector-curvature="0" /><path
         d="m 76.97,230.89 h 2.74"
         style="fill:none;stroke:#bebebe;stroke-width:0.43000001;stroke-linecap:butt;stroke-linejoin:round;stroke-miterlimit:10;stroke-dasharray:none;stroke-opacity:1"
         id="path4982"
         inkscape:connector-curvature="0" /><path
         d="m 76.97,276.1 h 2.74"
         style="fill:none;stroke:#bebebe;stroke-width:0.43000001;stroke-linecap:butt;stroke-linejoin:round;stroke-miterlimit:10;stroke-dasharray:none;stroke-opacity:1"
         id="path4984"
         inkscape:connector-curvature="0" /><path
         d="m 76.97,321.31 h 2.74"
         style="fill:none;stroke:#bebebe;stroke-width:0.43000001;stroke-linecap:butt;stroke-linejoin:round;stroke-miterlimit:10;stroke-dasharray:none;stroke-opacity:1"
         id="path4986"
         inkscape:connector-curvature="0" /></g><g
       id="g4988" /><g
       id="g4990" /><g
       id="g4992" /><g
       id="g4994" /><g
       id="g4996" /><g
       id="g4998" /><g
       id="g5000" /><g
       id="g5002" /><g
       id="g5004" /><g
       id="g5006"
       clip-path="url(#clipPath5403)"
       transform="matrix(0.98663263,0,0,1,5.3443617,-1.3449564)"><path
         d="m 91.01,33.57 v 2.74"
         style="fill:none;stroke:#bebebe;stroke-width:0.43000001;stroke-linecap:butt;stroke-linejoin:round;stroke-miterlimit:10;stroke-dasharray:none;stroke-opacity:1"
         id="path5008"
         inkscape:connector-curvature="0" /><path
         d="m 158.34,33.57 v 2.74"
         style="fill:none;stroke:#bebebe;stroke-width:0.43000001;stroke-linecap:butt;stroke-linejoin:round;stroke-miterlimit:10;stroke-dasharray:none;stroke-opacity:1"
         id="path5010"
         inkscape:connector-curvature="0" /><path
         d="m 225.67,33.57 v 2.74"
         style="fill:none;stroke:#bebebe;stroke-width:0.43000001;stroke-linecap:butt;stroke-linejoin:round;stroke-miterlimit:10;stroke-dasharray:none;stroke-opacity:1"
         id="path5012"
         inkscape:connector-curvature="0" /><path
         d="m 286.49,33.57 v 2.74"
         style="fill:none;stroke:#bebebe;stroke-width:0.43000001;stroke-linecap:butt;stroke-linejoin:round;stroke-miterlimit:10;stroke-dasharray:none;stroke-opacity:1"
         id="path5014"
         inkscape:connector-curvature="0" /></g><g
       id="g5016" /><g
       id="g5018"
       clip-path="url(#clipPath5399)"
       transform="matrix(0.98663263,0,0,1,5.3443617,-1.3449564)"><text
         transform="matrix(1,0,0,-1,79.45,22.05)"
         style="font-variant:normal;font-weight:normal;font-size:13px;font-family:Helvetica;-inkscape-font-specification:Helvetica;writing-mode:lr-tb;fill:#000000;fill-opacity:1;fill-rule:nonzero;stroke:none"
         id="text5022"><tspan
           x="0 9.3859997 16.614"
           y="0"
           sodipodi:role="line"
           id="tspan5020">Dez</tspan></text>
<text
         transform="matrix(1,0,0,-1,147.99,22.05)"
         style="font-variant:normal;font-weight:normal;font-size:13px;font-family:Helvetica;-inkscape-font-specification:Helvetica;writing-mode:lr-tb;fill:#000000;fill-opacity:1;fill-rule:nonzero;stroke:none"
         id="text5026"><tspan
           x="0 6.2399998 13.468"
           y="0"
           sodipodi:role="line"
           id="tspan5024">Jan</tspan></text>
<text
         transform="matrix(1,0,0,-1,214.67,22.05)"
         style="font-variant:normal;font-weight:normal;font-size:13px;font-family:Helvetica;-inkscape-font-specification:Helvetica;writing-mode:lr-tb;fill:#000000;fill-opacity:1;fill-rule:nonzero;stroke:none"
         id="text5030"><tspan
           x="0 7.553 14.781"
           y="0"
           sodipodi:role="line"
           id="tspan5028">Feb</tspan></text>
<text
         transform="matrix(1,0,0,-1,275.66,22.05)"
         style="font-variant:normal;font-weight:normal;font-size:13px;font-family:Helvetica;-inkscape-font-specification:Helvetica;writing-mode:lr-tb;fill:#000000;fill-opacity:1;fill-rule:nonzero;stroke:none"
         id="text5034"><tspan
           x="0 10.829 15.158"
           y="0"
           sodipodi:role="line"
           id="tspan5032">Mrz</tspan></text>
</g><g
       id="g5036" /><g
       id="g5038" /><g
       id="g5040" /><g
       id="g5042" /><g
       id="g5044" /><g
       id="g5046" /><g
       id="g5048" /><g
       id="g5050"
       transform="matrix(0.98663263,0,0,1,2.6904058,-80.697386)"
       clip-path="url(#clipPath5395)"><text
         transform="matrix(0,1,1,0,11.49,101.69)"
         style="font-variant:normal;font-weight:normal;font-size:16px;font-family:Helvetica;-inkscape-font-specification:Helvetica;writing-mode:lr-tb;fill:#000000;fill-opacity:1;fill-rule:nonzero;stroke:none"
         id="text5054"><tspan
           x="0 7.8559999 16.752001 25.648001 34.223999 45.616001 54.512001 58.063999 66.064003 74.959999 79.407997 90.080002 98.975998 107.872 116.768 125.664 133.664 142.56 147.008 155.90401 164.8 173.696 182.592"
           y="0"
           sodipodi:role="line"
           id="tspan5052">Tageweise Beobachtungen</tspan></text>
<text
         transform="matrix(0,1,1,0,28.77,155.92)"
         style="font-variant:normal;font-weight:normal;font-size:16px;font-family:Helvetica;-inkscape-font-specification:Helvetica;writing-mode:lr-tb;fill:#000000;fill-opacity:1;fill-rule:nonzero;stroke:none"
         id="text5058"><tspan
           x="0 7.8559999 16.752001 24.752001 29.200001 38.096001 46.992001 54.992001 58.543999 62.992001 66.543999 74.143997"
           y="0"
           sodipodi:role="line"
           id="tspan5056">Testpositive</tspan></text>
</g><g
       id="g5060" /><g
       id="g5062" /><g
       id="g5064" /><g
       id="g5066" /><g
       id="g5068" /><g
       id="g5070" /><g
       id="g5072" /><g
       id="g5074"
       transform="matrix(0.93824339,0,0,0.47364083,13.580064,65.244702)"
       clip-path="url(#clipPath5387)"><path
         d="m 106.21,106.92 h 91.41 v 103.06 h -91.41 z"
         style="fill:#ffffff;fill-opacity:1;fill-rule:nonzero;stroke:none"
         id="path5076"
         inkscape:connector-curvature="0" /></g><g
       id="g5078" /><g
       id="g5080" /><g
       id="g5082" /><g
       id="g5084"
       transform="matrix(0.70544615,0,0,0.71011332,-128.20418,-13.253325)"
       clip-path="url(#clipPath5379)"><text
         transform="matrix(1,0,0,-1,344.63,230.24)"
         style="font-style:oblique;font-variant:normal;font-size:16px;font-family:Helvetica;-inkscape-font-specification:Helvetica-Oblique;writing-mode:lr-tb;fill:#000000;fill-opacity:1;fill-rule:nonzero;stroke:none"
         id="text5088"><tspan
           x="0 4.448 13.344 17.312 26.208 34.208 38.655998 42.208 51.104 59.104 62.655998 67.103996 76"
           y="0"
           sodipodi:role="line"
           id="tspan5086">Infektiosität</tspan></text>
<text
         transform="matrix(1,0,0,-1,344.63,212.96)"
         style="font-style:oblique;font-variant:normal;font-size:16px;font-family:Helvetica;-inkscape-font-specification:Helvetica-Oblique;writing-mode:lr-tb;fill:#000000;fill-opacity:1;fill-rule:nonzero;stroke:none"
         id="text5092"><tspan
           x="0 12.448 25.775999 29.327999 37.327999 42.655998 51.551998"
           y="0"
           sodipodi:role="line"
           id="tspan5090">Omikron</tspan></text>
<text
         transform="matrix(1,0,0,-1,344.63,195.68)"
         style="font-style:oblique;font-variant:normal;font-size:16px;font-family:Helvetica;-inkscape-font-specification:Helvetica-Oblique;writing-mode:lr-tb;fill:#000000;fill-opacity:1;fill-rule:nonzero;stroke:none"
         id="text5096"><tspan
           x="0 8 15.76 20.208 24.656 36.208 45.104 48.655998 53.104"
           y="0"
           sodipodi:role="line"
           id="tspan5094">vs. Delta</tspan></text>
</g><g
       id="g5098" /><g
       id="g5100" /><g
       id="g5102" /><g
       id="g5104" /><g
       id="g5106"
       transform="matrix(0.98663263,0,0,1,-162.11389,-25.988754)"
       clip-path="url(#clipPath5371)"><path
         d="m 345.34,169.38 h 15.86 v 15.86 h -15.86 z"
         style="fill:#016392;fill-opacity:0.4;fill-rule:nonzero;stroke:none"
         id="path5108"
         inkscape:connector-curvature="0" /></g><g
       id="g5110" /><g
       id="g5112" /><g
       id="g5114" /><g
       id="g5116"
       transform="matrix(0.98663263,0,0,1,-162.11389,-25.988754)"
       clip-path="url(#clipPath5363)"><path
         d="m 345.34,152.1 h 15.86 v 15.86 h -15.86 z"
         style="fill:#c72e29;fill-opacity:0.4;fill-rule:nonzero;stroke:none"
         id="path5118"
         inkscape:connector-curvature="0" /></g><g
       id="g5120" /><g
       id="g5122" /><g
       id="g5124" /><g
       id="g5126"
       transform="matrix(0.95322495,0,0,1.0505172,-173.18722,-33.837101)"
       clip-path="url(#clipPath5355)"><text
         transform="matrix(1,0,0,-1,369.88,172.64)"
         style="font-variant:normal;font-weight:normal;font-size:13px;font-family:Helvetica;-inkscape-font-specification:Helvetica;writing-mode:lr-tb;fill:#000000;fill-opacity:1;fill-rule:nonzero;stroke:none"
         id="text5130"><tspan
           x="0 7.2280002"
           y="0"
           sodipodi:role="line"
           id="tspan5128">3x</tspan></text>
</g><g
       id="g5132" /><g
       id="g5134" /><g
       id="g5136" /><g
       id="g5138" /><g
       id="g5140"
       transform="matrix(0.95322495,0,0,1.0505172,-172.74489,-33.388782)"
       clip-path="url(#clipPath5347)"><text
         transform="matrix(1,0,0,-1,369.88,155.36)"
         style="font-variant:normal;font-weight:normal;font-size:13px;font-family:Helvetica;-inkscape-font-specification:Helvetica;writing-mode:lr-tb;fill:#000000;fill-opacity:1;fill-rule:nonzero;stroke:none"
         id="text5144"><tspan
           x="0 7.2280002"
           y="0"
           sodipodi:role="line"
           id="tspan5142">2x</tspan></text>
</g><g
       id="g5146" /><g
       id="g5148" /><g
       id="g5150" /><g
       id="g5152" /><g
       id="g5154" /><g
       id="g5156" /><g
       id="g5158" /><g
       id="g5160" /><g
       id="g5162" /><g
       id="g5164" /><g
       id="g5166" /><g
       id="g5168" /><g
       id="g5170" /></g></svg>